<?xml version="1.0" encoding="utf-8"?>
<!-- Generator: Adobe Illustrator 14.0.0, SVG Export Plug-In . SVG Version: 6.00 Build 43363)  -->
<!DOCTYPE svg PUBLIC "-//W3C//DTD SVG 1.1//EN" "http://www.w3.org/Graphics/SVG/1.1/DTD/svg11.dtd">
<svg version="1.1" id="Layer_1" xmlns="http://www.w3.org/2000/svg" xmlns:xlink="http://www.w3.org/1999/xlink" x="0px" y="0px"
	 width="527.515px" height="341.366px" viewBox="0 0 527.515 341.366" enable-background="new 0 0 527.515 341.366"
	 xml:space="preserve">
<circle fill="#4178AA" cx="458.378" cy="47.246" r="4.679"/>
<path fill="#4178AA" d="M421.861,143.596c0.104-3.996,3.853-6.823,5.453-7.853c0,0,5.007-21.42-11.497-29.481
	c-16.507-8.061-17.514,9.577-9.452,12.347c8.064,2.767,11.587-1.766,11.334-2.77c0,0,10.094,8.507,3.026,23.307l-19.208,26.076"/>
<path fill="#4178AA" d="M504.156,79.34c-0.485-2.708-1.068-5.354-1.736-7.952c0.07,2.379-0.1,4.53-0.576,6.262
	c-1.709,6.283-12.381,13.108-14.81,14.592c-1.988,13.139-14.683,26.183-18.788,30.141c-2.286,2.883-9.206,10.007-9.947,11.615
	c0,0-15.758-1.843-19.735,0.713c-3.975,2.552-9.65,8.235-2.555,13.344c3.17,2.283,3.103,4.001,4.827,4.257
	c-16.277,12.484-16.751,24.706-16.751,24.706s7.95-3.691,12.21-4.26c4.256-0.568,11.641-10.504,13.63-16.751
	c0.62-1.959,2.97-4.283,2.535-5.013c11.298-5.208,24.21-10.208,34.377-20.83C499.613,116.821,507.566,98.363,504.156,79.34z"/>
<path fill="#A8933B" d="M452.03,74.587c0,0-5.812,9.687-4.43,14.666c1.387,4.979,8.301,4.979,8.301,4.979s1.106,5.811,3.873,6.367
	c2.767,0.551,2.492-4.985,2.492-4.985S456.176,77.909,452.03,74.587z"/>
<g>
	<polygon fill="#A8933B" points="470.438,62.174 470.441,62.157 470.454,62.164 471.57,56.294 464.946,54.089 464.571,61.059 	"/>
	<polygon fill="#A8933B" points="470.452,62.174 470.454,62.168 470.441,62.157 470.441,62.174 	"/>
	<path fill="#A8933B" d="M494.812,51.931c-4.316-7.857-10.116-15.163-17.918-22c-16.182-14.196-29.242-16.521-31.515-11.243
		c-1.72,4.001-2.943,7.745-1.593,13.393c-0.527,1.331-0.494,3.02,0.248,4.658c0.447,1,1.115,1.835,1.893,2.45
		c-0.051,3.961,0.237,18.928,6.838,29.923c7.662,12.782,18.739,26.977,19.022,34.079c0.171,4.308,1.043,7.751,1.701,9.816
		c4.885-5.736,10.345-13.701,11.369-21.605l0.071-0.55l0.479-0.282c0.125-0.078,12.593-7.466,14.244-13.517
		C501.167,71.492,499.369,60.78,494.812,51.931z M450.23,36.582c-0.08,0.37-0.302,1.031-0.906,1.303
		C449.15,37.957,448.964,38,448.77,38c-0.991,0-2.086-0.901-2.668-2.191c-0.717-1.594-0.45-3.329,0.579-3.791
		c0.165-0.079,0.354-0.12,0.548-0.12c0.989,0,2.086,0.905,2.669,2.199C450.271,34.923,450.396,35.829,450.23,36.582z
		 M479.354,57.948l-0.917-0.302l-0.376,7.053l-0.959-0.316l-0.372,7.01l-6.664-2.223l-0.054,1.011l-6.703-2.235l-0.053,0.965
		l-7.615-2.537l6.765,1.28v-0.013l-0.01-0.003l0.01,0.003l1.113-5.866l-6.621-2.212l6.763,1.284l1.286-6.761l6.76,1.284l1.288-6.769
		l-0.379,6.977l5.874,1.11l0.003-0.012v0.014l0.009,0.002l1.289-6.767L479.354,57.948z"/>
	<polygon fill="#A8933B" points="471.308,63.433 470.393,63.124 470.07,69.039 475.871,70.139 476.973,64.337 471.359,62.467 	"/>
	<polygon fill="#A8933B" points="464.562,61.186 464.517,62.105 463.639,61.817 463.313,67.815 469.153,68.927 469.166,68.872 
		469.107,68.853 469.166,68.864 470.264,63.088 	"/>
	<polygon fill="#A8933B" points="472.564,56.63 471.686,56.333 471.365,62.334 477.143,63.436 477.156,63.368 477.154,63.433 
		477.207,63.446 478.314,57.607 472.613,55.703 	"/>
</g>
<circle fill="#4178AA" cx="424.084" cy="74.587" r="8.277"/>
<circle fill="#4178AA" cx="512.375" cy="94.294" r="4.731"/>
<circle fill="#4178AA" cx="453.961" cy="115.481" r="6.572"/>
<circle fill="#4178AA" cx="424.085" cy="34.084" r="7.216"/>
<circle fill="#4178AA" cx="498.868" cy="133.03" r="7.215"/>
<circle fill="#4178AA" cx="418.488" cy="131.665" r="7.215"/>
<circle fill="#4178AA" cx="458.618" cy="4.656" r="4.657"/>
<circle fill="#4178AA" cx="392.704" cy="110.941" r="4.54"/>
<path fill="#4178AA" d="M438.823,51.94c0,2.078-1.685,3.763-3.762,3.763s-3.761-1.685-3.761-3.763c0-2.075,1.684-3.761,3.761-3.761
	S438.823,49.865,438.823,51.94z"/>
<g>
	<path fill="#4178AA" d="M197.574,201.853h-18.739c-5.755,0-9.75,1.021-11.983,3.067c-2.234,2.044-3.35,4.583-3.35,7.608
		c0,3.408,1.323,6.134,3.974,8.178c2.65,2.042,6.362,3.068,11.132,3.068c4.542,0,8.461-1.042,11.755-3.125
		c3.292-2.082,5.695-5.09,7.21-9.028V201.853z"/>
	<path fill="#4178AA" d="M508.896,114.314c-13.973,4.331-20.56,19.688-20.56,19.688c-9.297,9.712-20.728,14.868-30.812,19.416
		l-2.304,1.047c-0.295,0.542-0.62,1.029-0.894,1.441c-0.32,0.479-0.854,1.279-0.968,1.607c-1.995,6.275-9.894,18.357-16.81,19.281
		c-2.542,0.342-7.887,2.505-10.656,3.79l-6.378,2.959l0.271-7.026c0.02-0.521,0.627-11.938,14.064-24.046
		c-0.193-0.164-0.412-0.338-0.663-0.521c-4.308-3.1-5.136-6.574-5.074-8.938c0.027-1.028,0.267-1.98,0.581-2.892
		c0.066-0.193,0.129-0.393,0.207-0.583c0.354-0.847,0.785-1.653,1.294-2.387c0.087-0.123,0.183-0.233,0.271-0.351
		c0.516-0.695,1.069-1.345,1.646-1.918c0.048-0.05,0.099-0.107,0.148-0.157c0.661-0.646,1.333-1.217,1.947-1.693
		c0.625-0.481,1.211-0.898,1.66-1.187c0,0,1.387-36.19-22.086-47.653c-23.471-11.464-24.904,13.613-13.439,17.554
		c11.463,3.942,16.479-2.508,16.121-3.94c0,0,17.778,15.81,11.476,35.227H10.644v114.077h506.461V133.03h-24.541
		c1.803-2.799,3.894-5.837,5.669-7.809c4.023-4.467,12.812-6.28,12.812-6.28s1.792,5.016,6.061,3.224
		C521.373,120.375,522.868,109.984,508.896,114.314z M138.632,229.563h-8.064V195.72c0-6.283-1.495-11.032-4.486-14.251
		c-2.991-3.219-7.21-4.828-12.663-4.828c-4.088,0-7.629,0.851-10.618,2.555c-2.992,1.704-5.301,4.165-6.927,7.383
		c-1.629,3.218-2.444,7.099-2.444,11.643v31.343h-8.063V195.72c0-6.283-1.514-11.032-4.543-14.251
		c-3.028-3.219-7.268-4.828-12.719-4.828c-4.013,0-7.534,0.851-10.562,2.555c-3.029,1.704-5.356,4.165-6.982,7.383
		c-1.63,3.218-2.445,7.099-2.445,11.643v31.343h-8.063v-59.625h7.722v10.858c1.81-3.167,4.305-5.761,7.554-7.734
		c4.051-2.461,8.84-3.692,14.367-3.692c5.83,0,10.79,1.458,14.875,4.373c2.856,2.034,4.964,4.825,6.416,8.279
		c1.805-3.225,4.335-5.951,7.613-8.164c4.428-2.989,9.745-4.487,15.956-4.487c4.846,0,9.066,0.93,12.662,2.783
		c3.597,1.856,6.399,4.677,8.407,8.461c2.003,3.787,3.008,8.556,3.008,14.31V229.563z M205.637,229.563h-7.722v-9.387
		c-1.547,2.566-3.678,4.719-6.418,6.435c-3.747,2.349-8.461,3.521-14.137,3.521c-4.469,0-8.349-0.738-11.643-2.213
		c-3.293-1.478-5.812-3.521-7.552-6.135c-1.744-2.611-2.612-5.62-2.612-9.027c0-3.104,0.736-5.925,2.213-8.46
		c1.478-2.537,3.899-4.583,7.27-6.136c3.366-1.55,7.893-2.325,13.572-2.325h18.966v-3.637c0-5.07-1.42-8.969-4.259-11.695
		c-2.84-2.726-7.06-4.089-12.665-4.089c-3.859,0-7.535,0.643-11.017,1.931c-3.481,1.287-6.434,2.993-8.858,5.111l-3.633-6.021
		c3.025-2.571,6.661-4.56,10.901-5.962c4.24-1.398,8.707-2.102,13.401-2.102c7.726,0,13.687,1.914,17.888,5.735
		c4.205,3.826,6.304,9.636,6.304,17.433V229.563z M257.539,177.208c-0.305,0-0.607-0.017-0.91-0.056
		c-0.305-0.04-0.607-0.06-0.91-0.06c-6.284,0-11.206,1.915-14.764,5.735c-3.56,3.826-5.338,9.258-5.338,16.298v30.437h-8.063
		v-59.625h7.722v11.658c1.708-3.67,4.207-6.589,7.61-8.647c3.935-2.386,8.819-3.578,14.651-3.578V177.208z M300.525,229.11
		c-2.233,0.681-4.527,1.022-6.871,1.022c-5.605,0-9.92-1.514-12.948-4.543c-3.028-3.027-4.542-7.304-4.542-12.832V176.64h-10.676
		v-6.701h10.676v-13.174h8.063v13.174h18.17v6.701h-18.17v35.661c0,3.484,0.888,6.169,2.67,8.063c1.776,1.894,4.332,2.84,7.665,2.84
		c3.559,0,6.511-1.024,8.859-3.067l2.836,5.793C304.67,227.37,302.755,228.428,300.525,229.11z M328.973,229.563h-8.064v-59.625
		h8.064V229.563z M329.259,155.061c-1.101,1.136-2.521,1.704-4.262,1.704c-1.665,0-3.067-0.568-4.2-1.704
		c-1.135-1.135-1.704-2.498-1.704-4.087c0-1.593,0.569-2.933,1.704-4.033c1.133-1.097,2.535-1.645,4.2-1.645
		c1.668,0,3.069,0.527,4.202,1.589c1.136,1.061,1.706,2.385,1.706,3.974C330.905,152.525,330.354,153.926,329.259,155.061z
		 M406.431,229.563h-8.065V195.72c0-6.283-1.572-11.032-4.713-14.251c-3.145-3.219-7.554-4.828-13.232-4.828
		c-4.241,0-7.934,0.851-11.073,2.555c-3.143,1.704-5.564,4.165-7.269,7.383c-1.705,3.218-2.557,7.099-2.557,11.643v31.343h-8.063
		v-59.625h7.722v10.947c1.881-3.205,4.47-5.833,7.839-7.822c4.163-2.461,9.124-3.692,14.878-3.692c4.845,0,9.102,0.93,12.777,2.783
		c3.67,1.856,6.547,4.677,8.631,8.461c2.079,3.787,3.125,8.556,3.125,14.31V229.563z M500.575,174.936l-3.521,6.475
		c-2.649-1.817-5.488-3.125-8.517-3.919c-3.028-0.795-6.055-1.193-9.086-1.193c-5.377,0-9.33,0.929-11.865,2.782
		c-2.54,1.858-3.807,4.223-3.807,7.101c0,2.27,0.699,4.049,2.103,5.337c1.398,1.288,3.254,2.29,5.562,3.01
		c2.31,0.718,4.846,1.307,7.611,1.76c2.764,0.453,5.524,1.004,8.29,1.646c2.763,0.644,5.298,1.517,7.61,2.614
		c2.309,1.097,4.161,2.651,5.565,4.655c1.398,2.005,2.101,4.64,2.101,7.892c0,3.485-0.966,6.494-2.896,9.029
		c-1.932,2.537-4.734,4.505-8.405,5.906c-3.672,1.401-8.119,2.101-13.342,2.101c-4.923,0-9.581-0.7-13.97-2.101
		c-4.394-1.401-7.837-3.161-10.336-5.284l3.633-6.357c2.424,1.816,5.527,3.39,9.315,4.714c3.784,1.326,7.758,1.987,11.922,1.987
		c5.68,0,9.769-0.89,12.269-2.669c2.495-1.778,3.746-4.147,3.746-7.1c0-2.194-0.702-3.916-2.102-5.166
		c-1.4-1.249-3.234-2.194-5.508-2.838c-2.269-0.644-4.808-1.192-7.61-1.65c-2.801-0.451-5.584-0.98-8.346-1.588
		c-2.766-0.605-5.281-1.494-7.552-2.668c-2.273-1.171-4.108-2.781-5.509-4.827c-1.4-2.044-2.101-4.77-2.101-8.175
		c0-3.255,0.91-6.172,2.725-8.747c1.816-2.572,4.487-4.599,8.009-6.076c3.519-1.476,7.814-2.215,12.888-2.215
		c3.863,0,7.723,0.512,11.587,1.535C494.898,171.927,498.078,173.273,500.575,174.936z"/>
</g>
<g>
	<path fill="#A8933B" d="M62.877,296.007c-0.35,0-0.49,0.14-0.629,0.56l-3.78,10.007c-0.7,1.748-1.05,3.428-1.05,4.267
		c0,1.262,0.631,2.171,2.801,2.171h1.05c0.839,0,1.049,0.14,1.049,0.56c0,0.56-0.419,0.7-1.189,0.7c-2.241,0-5.249-0.21-7.417-0.21
		c-0.77,0-4.618,0.21-8.257,0.21c-0.91,0-1.329-0.141-1.329-0.7c0-0.42,0.279-0.56,0.839-0.56c0.63,0,1.609-0.071,2.17-0.141
		c3.219-0.42,4.548-2.797,5.948-6.297l17.562-43.943c0.84-2.028,1.26-2.799,1.96-2.799c0.629,0,1.049,0.631,1.75,2.239
		c1.679,3.848,12.875,32.397,17.353,43.032c2.658,6.299,4.687,7.277,6.158,7.627c1.05,0.21,2.1,0.281,2.938,0.281
		c0.56,0,0.91,0.069,0.91,0.56c0,0.56-0.629,0.7-3.218,0.7c-2.52,0-7.627,0-13.225-0.141c-1.26-0.069-2.1-0.069-2.1-0.56
		c0-0.42,0.28-0.56,0.979-0.631c0.49-0.139,0.98-0.769,0.63-1.607l-5.598-14.835c-0.14-0.351-0.35-0.49-0.7-0.49H62.877z
		 M77.151,292.509c0.35,0,0.42-0.212,0.35-0.422l-6.298-17.28c-0.07-0.282-0.14-0.632-0.35-0.632s-0.35,0.35-0.419,0.632
		l-6.438,17.211c-0.07,0.279,0,0.491,0.281,0.491H77.151z"/>
	<path fill="#A8933B" d="M140.893,313.431c-2.8,1.049-7.277,1.818-10.985,1.818c-20.502,0-28.479-15.185-28.479-27.778
		c0-11.405,8.187-27.079,28.689-27.079c16.723,0,28.338,10.146,28.338,26.519c0,12.315-7.768,20.083-12.175,23.022l14.064,7.205
		c14.764,7.558,24.07,8.327,28.829,8.327c3.639,0,8.816-0.56,13.644-2.449c0.42-0.139,0.771-0.35,1.051-0.35
		c0.35,0,0.63,0.28,0.63,0.631c0,0.419-0.35,0.629-0.84,0.839c-4.199,2.029-12.105,5.248-22.181,5.248
		c-10.566,0-18.054-2.729-29.599-9.516L140.893,313.431z M148.659,288.799c0-16.933-10.495-25.05-20.15-25.05
		c-9.167,0-17.355,5.878-17.355,22.111c0,16.652,10.077,25.892,21.343,25.892C138.093,311.752,148.659,309.302,148.659,288.799z"/>
	<path fill="#A8933B" d="M171.115,281.662c0-10.635,0-12.594-0.14-14.833c-0.14-2.381-0.7-3.499-3.008-3.988
		c-0.56-0.141-1.75-0.211-2.729-0.211c-0.77,0-1.189-0.14-1.189-0.63s0.49-0.629,1.539-0.629c3.708,0,8.117,0.21,10.216,0.21
		c1.679,0,6.087-0.21,8.606-0.21c1.05,0,1.539,0.139,1.539,0.629s-0.419,0.63-1.12,0.63c-0.77,0-1.189,0.07-2.029,0.211
		c-1.889,0.35-2.449,1.538-2.588,3.988c-0.14,2.239-0.14,4.198-0.14,14.833v9.796c0,10.146,2.029,14.415,5.458,17.214
		c3.15,2.588,6.368,2.87,8.747,2.87c3.078,0,6.857-0.98,9.656-3.779c3.848-3.849,4.059-10.146,4.059-17.354v-8.746
		c0-10.635,0-12.594-0.14-14.833c-0.14-2.381-0.7-3.499-3.009-3.988c-0.56-0.141-1.749-0.211-2.52-0.211
		c-0.769,0-1.188-0.14-1.188-0.63s0.49-0.629,1.469-0.629c3.568,0,7.976,0.21,8.046,0.21c0.841,0,5.249-0.21,7.978-0.21
		c0.979,0,1.47,0.139,1.47,0.629s-0.421,0.63-1.26,0.63c-0.769,0-1.189,0.07-2.028,0.211c-1.889,0.35-2.45,1.538-2.589,3.988
		c-0.14,2.239-0.14,4.198-0.14,14.833v7.487c0,7.768-0.771,16.023-6.647,21.062c-4.968,4.269-10.007,5.038-14.555,5.038
		c-3.708,0-10.426-0.21-15.533-4.827c-3.569-3.219-6.229-8.396-6.229-18.544V281.662z"/>
	<path fill="#A8933B" d="M235.627,296.007c-0.35,0-0.49,0.14-0.63,0.56l-3.778,10.007c-0.699,1.748-1.049,3.428-1.049,4.267
		c0,1.262,0.629,2.171,2.798,2.171h1.049c0.84,0,1.05,0.14,1.05,0.56c0,0.56-0.42,0.7-1.19,0.7c-2.238,0-5.248-0.21-7.417-0.21
		c-0.771,0-4.618,0.21-8.256,0.21c-0.91,0-1.329-0.141-1.329-0.7c0-0.42,0.28-0.56,0.839-0.56c0.63,0,1.609-0.071,2.169-0.141
		c3.218-0.42,4.547-2.797,5.946-6.297l17.564-43.943c0.84-2.028,1.26-2.799,1.959-2.799c0.63,0,1.048,0.631,1.75,2.239
		c1.679,3.848,12.875,32.397,17.353,43.032c2.66,6.299,4.688,7.277,6.158,7.627c1.049,0.21,2.099,0.281,2.938,0.281
		c0.561,0,0.91,0.069,0.91,0.56c0,0.56-0.63,0.7-3.219,0.7c-2.519,0-7.628,0-13.225-0.141c-1.259-0.069-2.1-0.069-2.1-0.56
		c0-0.42,0.28-0.56,0.98-0.631c0.489-0.139,0.979-0.769,0.629-1.607l-5.598-14.835c-0.141-0.351-0.35-0.49-0.7-0.49H235.627z
		 M249.902,292.509c0.349,0,0.419-0.212,0.349-0.422l-6.297-17.28c-0.069-0.282-0.14-0.632-0.35-0.632s-0.351,0.35-0.42,0.632
		l-6.438,17.211c-0.071,0.279,0,0.491,0.279,0.491H249.902z"/>
	<path fill="#A8933B" d="M281.806,281.662c0-10.635,0-12.594-0.14-14.833c-0.14-2.381-0.699-3.499-3.008-3.988
		c-0.562-0.141-1.751-0.211-2.729-0.211c-0.771,0-1.19-0.14-1.19-0.63s0.489-0.629,1.538-0.629c3.709,0,8.118,0.21,9.588,0.21
		c2.378,0,7.696-0.21,9.864-0.21c4.409,0,9.098,0.42,12.876,3.008c1.959,1.328,4.759,4.899,4.759,9.586
		c0,5.179-2.168,9.938-9.237,15.674c6.228,7.839,11.057,14.065,15.184,18.404c3.92,4.059,6.789,4.547,7.838,4.758
		c0.77,0.139,1.399,0.21,1.958,0.21c0.561,0,0.84,0.21,0.84,0.56c0,0.56-0.489,0.7-1.328,0.7h-6.646
		c-3.92,0-5.669-0.351-7.488-1.331c-3.009-1.607-5.668-4.896-9.586-10.287c-2.8-3.847-6.018-8.604-6.928-9.653
		c-0.349-0.42-0.769-0.49-1.261-0.49l-6.087-0.142c-0.35,0-0.56,0.142-0.56,0.563v0.979c0,6.508,0,12.036,0.351,14.974
		c0.209,2.029,0.63,3.568,2.729,3.848c1.049,0.141,2.588,0.281,3.43,0.281c0.56,0,0.84,0.21,0.84,0.56c0,0.49-0.489,0.7-1.4,0.7
		c-4.06,0-9.237-0.21-10.286-0.21c-1.329,0-5.738,0.21-8.535,0.21c-0.912,0-1.401-0.21-1.401-0.7c0-0.35,0.28-0.56,1.119-0.56
		c1.049,0,1.891-0.141,2.519-0.281c1.4-0.279,1.751-1.818,2.03-3.848c0.35-2.938,0.35-8.466,0.35-14.903V281.662z M290.063,287.191
		c0,0.769,0.141,1.048,0.63,1.259c1.469,0.489,3.567,0.699,5.318,0.699c2.799,0,3.709-0.279,4.968-1.189
		c2.099-1.539,4.129-4.757,4.129-10.495c0-9.936-6.578-12.806-10.707-12.806c-1.748,0-3.008,0.07-3.708,0.28
		c-0.489,0.14-0.63,0.419-0.63,0.979V287.191z"/>
	<path fill="#A8933B" d="M334.631,281.662c0-10.635,0-12.594-0.141-14.833c-0.142-2.381-0.84-3.569-2.38-3.919
		c-0.77-0.21-1.679-0.28-2.52-0.28c-0.698,0-1.118-0.14-1.118-0.699c0-0.421,0.56-0.56,1.679-0.56c2.659,0,7.067,0.21,9.097,0.21
		c1.748,0,5.878-0.21,8.536-0.21c0.909,0,1.47,0.139,1.47,0.56c0,0.56-0.42,0.699-1.12,0.699c-0.699,0-1.259,0.07-2.099,0.211
		c-1.889,0.35-2.449,1.538-2.589,3.988c-0.139,2.239-0.139,4.198-0.139,14.833v12.316c0,6.786,0,12.314,0.278,15.323
		c0.21,1.89,0.701,3.148,2.799,3.428c0.98,0.141,2.519,0.281,3.567,0.281c0.771,0,1.122,0.21,1.122,0.56c0,0.49-0.562,0.7-1.331,0.7
		c-4.617,0-9.026-0.21-10.915-0.21c-1.609,0-6.018,0.21-8.816,0.21c-0.91,0-1.4-0.21-1.4-0.7c0-0.35,0.281-0.56,1.12-0.56
		c1.05,0,1.889-0.141,2.519-0.281c1.4-0.279,1.82-1.47,2.03-3.498c0.351-2.938,0.351-8.467,0.351-15.253V281.662z"/>
	<path fill="#A8933B" d="M363.245,281.662c0-10.635,0-12.594-0.14-14.833c-0.141-2.381-0.699-3.499-3.009-3.988
		c-0.559-0.141-1.751-0.211-2.729-0.211c-0.771,0-1.19-0.14-1.19-0.63s0.492-0.629,1.542-0.629c3.708,0,8.115,0.21,10.215,0.21
		c1.68,0,6.089-0.21,8.606-0.21c1.05,0,1.54,0.139,1.54,0.629s-0.421,0.63-1.12,0.63c-0.771,0-1.19,0.07-2.03,0.211
		c-1.889,0.35-2.448,1.538-2.588,3.988c-0.14,2.239-0.14,4.198-0.14,14.833v9.796c0,10.146,2.029,14.415,5.457,17.214
		c3.149,2.588,6.367,2.87,8.748,2.87c3.078,0,6.856-0.98,9.654-3.779c3.85-3.849,4.059-10.146,4.059-17.354v-8.746
		c0-10.635,0-12.594-0.14-14.833c-0.14-2.381-0.7-3.499-3.009-3.988c-0.56-0.141-1.75-0.211-2.519-0.211
		c-0.77,0-1.189-0.14-1.189-0.63s0.488-0.629,1.47-0.629c3.568,0,7.978,0.21,8.047,0.21c0.839,0,5.246-0.21,7.978-0.21
		c0.979,0,1.469,0.139,1.469,0.629s-0.42,0.63-1.259,0.63c-0.771,0-1.191,0.07-2.031,0.211c-1.889,0.35-2.448,1.538-2.589,3.988
		c-0.14,2.239-0.14,4.198-0.14,14.833v7.487c0,7.768-0.77,16.023-6.646,21.062c-4.97,4.269-10.007,5.038-14.555,5.038
		c-3.709,0-10.427-0.21-15.533-4.827c-3.568-3.219-6.229-8.396-6.229-18.544V281.662z"/>
	<path fill="#A8933B" d="M427.338,261.65c0.21-1.188,0.629-1.819,1.189-1.819c0.56,0,0.98,0.351,1.889,2.169l19.102,39.466
		l19.032-39.956c0.56-1.118,0.911-1.679,1.541-1.679c0.629,0,1.049,0.7,1.259,2.169l6.367,43.243c0.63,4.408,1.33,6.437,3.429,7.067
		c2.029,0.629,3.429,0.7,4.338,0.7c0.63,0,1.12,0.069,1.12,0.489c0,0.561-0.841,0.771-1.819,0.771c-1.75,0-11.405-0.21-14.204-0.421
		c-1.61-0.14-2.03-0.35-2.03-0.77c0-0.351,0.28-0.561,0.77-0.77c0.422-0.14,0.632-1.051,0.352-3.009l-4.198-30.789h-0.279
		l-15.256,31.77c-1.609,3.288-1.958,3.917-2.588,3.917s-1.33-1.398-2.449-3.498c-1.679-3.219-7.207-13.925-8.047-15.883
		c-0.63-1.469-4.827-10.286-7.276-15.535h-0.281l-3.639,27.849c-0.14,1.26-0.21,2.17-0.21,3.29c0,1.33,0.91,1.958,2.101,2.238
		c1.259,0.279,2.238,0.351,2.938,0.351c0.561,0,1.05,0.14,1.05,0.489c0,0.63-0.63,0.771-1.68,0.771c-2.938,0-6.088-0.21-7.347-0.21
		c-1.329,0-4.688,0.21-6.928,0.21c-0.697,0-1.259-0.141-1.259-0.771c0-0.35,0.42-0.489,1.12-0.489c0.56,0,1.048,0,2.099-0.21
		c1.96-0.421,2.519-3.149,2.868-5.528L427.338,261.65z"/>
</g>
<g>
	<polygon fill="#A8933B" points="527.515,341.366 0,341.366 0,125.692 3.663,125.692 3.663,337.702 523.852,337.702 
		523.852,125.692 527.515,125.692 527.515,341.366 	"/>
</g>
</svg>
