<?xml version="1.0" encoding="utf-8"?>
<!-- Generator: Adobe Illustrator 14.0.0, SVG Export Plug-In . SVG Version: 6.00 Build 43363)  -->
<!DOCTYPE svg PUBLIC "-//W3C//DTD SVG 1.1//EN" "http://www.w3.org/Graphics/SVG/1.1/DTD/svg11.dtd">
<svg version="1.1" id="Layer_1" xmlns="http://www.w3.org/2000/svg" xmlns:xlink="http://www.w3.org/1999/xlink" x="0px" y="0px"
	 width="720px" height="720px" viewBox="0 0 720 720" enable-background="new 0 0 720 720" xml:space="preserve">
<path fill="#4178AA" d="M516.538,306.799c0.105-4.015,3.871-6.855,5.479-7.89c0,0,5.03-21.52-11.55-29.619
	c-16.584-8.098-17.596,9.621-9.497,12.404c8.103,2.78,11.642-1.774,11.388-2.784c0,0,10.141,8.547,3.04,23.417L496.1,328.525"/>
<path fill="#4178AA" d="M599.218,242.243c-0.488-2.721-1.074-5.379-1.745-7.989c0.071,2.391-0.101,4.551-0.578,6.291
	c-1.717,6.313-12.439,13.169-14.879,14.66c-1.998,13.2-14.751,26.305-18.876,30.281c-2.297,2.897-9.249,10.054-9.994,11.669
	c0,0-15.831-1.852-19.826,0.717c-3.994,2.564-9.696,8.273-2.567,13.407c3.184,2.294,3.117,4.02,4.85,4.277
	c-16.354,12.542-16.829,24.82-16.829,24.82s7.987-3.708,12.267-4.279c4.276-0.571,11.695-10.554,13.693-16.83
	c0.623-1.969,2.983-4.303,2.548-5.037c11.35-5.232,24.322-10.255,34.537-20.927C594.653,279.899,602.644,261.355,599.218,242.243z"
	/>
<path fill="#A8933B" d="M546.849,237.468c0,0-5.839,9.732-4.451,14.734c1.394,5.003,8.34,5.003,8.34,5.003s1.112,5.837,3.892,6.397
	c2.779,0.554,2.504-5.008,2.504-5.008S551.013,240.806,546.849,237.468z"/>
<g>
	<polygon fill="#A8933B" points="565.342,224.998 565.345,224.98 565.358,224.987 566.479,219.09 559.824,216.875 559.448,223.877 	
		"/>
	<polygon fill="#A8933B" points="565.355,224.998 565.358,224.991 565.345,224.98 565.345,224.998 	"/>
	<path fill="#A8933B" d="M589.83,214.707c-4.338-7.894-10.165-15.234-18.002-22.103c-16.258-14.262-29.379-16.598-31.662-11.295
		c-1.728,4.02-2.957,7.781-1.601,13.456c-0.529,1.337-0.496,3.034,0.249,4.68c0.449,1.004,1.12,1.844,1.901,2.461
		c-0.051,3.979,0.238,19.017,6.871,30.063c7.697,12.842,18.825,27.103,19.11,34.238c0.172,4.328,1.048,7.787,1.709,9.862
		c4.907-5.763,10.393-13.765,11.422-21.706l0.072-0.552l0.481-0.283c0.125-0.079,12.651-7.501,14.311-13.58
		C596.214,234.359,594.407,223.598,589.83,214.707z M545.041,199.286c-0.082,0.372-0.304,1.036-0.912,1.31
		c-0.174,0.072-0.361,0.115-0.557,0.115c-0.996,0-2.096-0.906-2.681-2.201c-0.721-1.602-0.452-3.345,0.583-3.809
		c0.165-0.079,0.354-0.12,0.55-0.12c0.993,0,2.095,0.909,2.681,2.208C545.081,197.62,545.206,198.529,545.041,199.286z
		 M574.299,220.752l-0.921-0.303l-0.379,7.085l-0.963-0.318l-0.374,7.043l-6.694-2.233l-0.055,1.016l-6.733-2.245l-0.053,0.97
		l-7.652-2.548l6.797,1.286v-0.013l-0.01-0.004l0.01,0.004l1.119-5.893l-6.652-2.222l6.794,1.289l1.292-6.792l6.792,1.291
		l1.294-6.801l-0.381,7.01l5.901,1.115l0.003-0.012v0.015l0.009,0.002l1.294-6.799L574.299,220.752z"/>
	<polygon fill="#A8933B" points="566.216,226.262 565.296,225.952 564.973,231.895 570.8,232.999 571.907,227.17 566.268,225.292 	
		"/>
	<polygon fill="#A8933B" points="559.438,224.005 559.393,224.928 558.511,224.639 558.185,230.666 564.051,231.782 
		564.064,231.727 564.005,231.708 564.064,231.719 565.167,225.915 	"/>
	<polygon fill="#A8933B" points="567.478,219.428 566.595,219.13 566.273,225.159 572.078,226.265 572.092,226.197 572.089,226.262 
		572.142,226.276 573.255,220.409 567.526,218.496 	"/>
</g>
<circle fill="#4178AA" cx="518.772" cy="237.468" r="8.315"/>
<circle fill="#4178AA" cx="607.474" cy="257.268" r="4.753"/>
<circle fill="#4178AA" cx="548.788" cy="278.554" r="6.603"/>
<circle fill="#4178AA" cx="518.772" cy="196.776" r="7.249"/>
<circle fill="#4178AA" cx="593.904" cy="296.185" r="7.25"/>
<circle fill="#4178AA" cx="513.149" cy="294.812" r="7.25"/>
<circle fill="#4178AA" cx="553.466" cy="167.211" r="4.679"/>
<circle fill="#4178AA" cx="487.245" cy="273.992" r="4.561"/>
<circle fill="#4178AA" cx="529.8" cy="214.716" r="3.779"/>
<g>
	<path fill="#4178AA" d="M291.205,365.329h-18.826c-5.782,0-9.795,1.024-12.039,3.081c-2.245,2.051-3.366,4.604-3.366,7.643
		c0,3.425,1.33,6.164,3.993,8.218c2.663,2.051,6.392,3.081,11.184,3.081c4.563,0,8.501-1.047,11.811-3.139
		c3.307-2.092,5.722-5.115,7.244-9.072V365.329z"/>
	<path fill="#4178AA" d="M603.979,277.381c-14.037,4.351-20.655,19.779-20.655,19.779c-9.34,9.758-20.824,14.938-30.955,19.507
		l-2.314,1.052c-0.297,0.544-0.623,1.035-0.898,1.448c-0.321,0.481-0.858,1.285-0.972,1.615c-2.005,6.304-9.94,18.442-16.889,19.371
		c-2.554,0.344-7.923,2.517-10.706,3.808l-6.407,2.972l0.273-7.058c0.019-0.523,0.63-11.994,14.13-24.158
		c-0.194-0.166-0.414-0.34-0.666-0.523c-4.328-3.115-5.16-6.605-5.098-8.98c0.027-1.033,0.267-1.989,0.583-2.905
		c0.067-0.194,0.13-0.395,0.208-0.586c0.355-0.851,0.789-1.661,1.301-2.398c0.087-0.124,0.183-0.234,0.271-0.353
		c0.518-0.698,1.073-1.351,1.653-1.927c0.048-0.05,0.1-0.107,0.149-0.158c0.664-0.649,1.339-1.223,1.957-1.701
		c0.628-0.483,1.216-0.903,1.667-1.192c0,0,1.394-36.36-22.188-47.876c-23.581-11.519-25.021,13.676-13.503,17.635
		c11.518,3.96,16.557-2.52,16.197-3.959c0,0,17.86,15.884,11.528,35.392H103.402v114.609h508.824V296.185h-24.655
		c1.812-2.812,3.911-5.865,5.695-7.846c4.042-4.488,12.872-6.309,12.872-6.309s1.801,5.039,6.088,3.239
		C616.515,283.47,618.018,273.031,603.979,277.381z M231.987,393.169h-8.102v-34.003c0-6.313-1.501-11.084-4.507-14.318
		c-3.006-3.232-7.245-4.851-12.722-4.851c-4.107,0-7.665,0.855-10.667,2.566c-3.007,1.714-5.327,4.187-6.96,7.419
		c-1.636,3.234-2.455,7.13-2.455,11.695v31.491h-8.1v-34.003c0-6.313-1.521-11.084-4.564-14.318
		c-3.042-3.232-7.302-4.851-12.778-4.851c-4.031,0-7.57,0.855-10.612,2.566c-3.043,1.714-5.381,4.187-7.015,7.419
		c-1.638,3.234-2.456,7.13-2.456,11.695v31.491h-8.1v-59.904h7.757v10.909c1.818-3.182,4.325-5.786,7.589-7.771
		c4.07-2.472,8.881-3.709,14.434-3.709c5.857,0,10.84,1.467,14.945,4.394c2.869,2.044,4.987,4.848,6.446,8.317
		c1.813-3.239,4.355-5.979,7.649-8.203c4.449-3.003,9.791-4.508,16.03-4.508c4.868,0,9.108,0.935,12.721,2.796
		c3.614,1.864,6.429,4.699,8.446,8.5c2.013,3.804,3.022,8.597,3.022,14.378V393.169z M299.305,393.169h-7.758v-9.431
		c-1.555,2.578-3.695,4.739-6.449,6.463c-3.765,2.36-8.5,3.538-14.203,3.538c-4.49,0-8.388-0.741-11.697-2.224
		c-3.308-1.485-5.839-3.538-7.587-6.165c-1.752-2.624-2.624-5.646-2.624-9.068c0-3.118,0.74-5.952,2.223-8.5
		c1.485-2.548,3.918-4.603,7.304-6.165c3.382-1.556,7.93-2.336,13.635-2.336h19.054v-3.651c0-5.096-1.427-9.012-4.278-11.751
		c-2.854-2.739-7.094-4.109-12.725-4.109c-3.877,0-7.57,0.647-11.067,1.94c-3.498,1.292-6.464,3.006-8.899,5.136l-3.65-6.05
		c3.039-2.583,6.692-4.582,10.952-5.989c4.26-1.405,8.748-2.112,13.463-2.112c7.762,0,13.751,1.924,17.972,5.763
		c4.224,3.843,6.333,9.68,6.333,17.516V393.169z M351.45,340.567c-0.307,0-0.61-0.017-0.914-0.055
		c-0.308-0.039-0.61-0.06-0.914-0.06c-6.313,0-11.259,1.924-14.833,5.763c-3.576,3.843-5.363,9.3-5.363,16.373v30.58h-8.101v-59.904
		h7.759v11.712c1.716-3.687,4.227-6.619,7.646-8.688c3.953-2.396,8.86-3.594,14.72-3.594V340.567z M394.636,392.713
		c-2.244,0.684-4.548,1.026-6.903,1.026c-5.631,0-9.965-1.521-13.008-4.564c-3.043-3.042-4.564-7.338-4.564-12.893v-36.285h-10.725
		v-6.732h10.725V320.03h8.103v13.235h18.254v6.732h-18.254v35.827c0,3.503,0.893,6.2,2.682,8.102
		c1.785,1.904,4.353,2.855,7.701,2.855c3.575,0,6.542-1.03,8.901-3.083l2.85,5.819C398.801,390.964,396.876,392.026,394.636,392.713
		z M423.217,393.169h-8.103v-59.904h8.103V393.169z M423.504,318.318c-1.105,1.141-2.532,1.712-4.281,1.712
		c-1.673,0-3.082-0.571-4.22-1.712c-1.141-1.14-1.712-2.509-1.712-4.106c0-1.601,0.571-2.947,1.712-4.052
		c1.138-1.102,2.547-1.653,4.22-1.653c1.675,0,3.083,0.53,4.222,1.597c1.142,1.065,1.713,2.396,1.713,3.993
		C425.157,315.77,424.604,317.178,423.504,318.318z M501.035,393.169h-8.103v-34.003c0-6.313-1.58-11.084-4.735-14.318
		c-3.158-3.232-7.589-4.851-13.294-4.851c-4.26,0-7.97,0.855-11.125,2.566c-3.156,1.714-5.59,4.187-7.302,7.419
		c-1.713,3.234-2.568,7.13-2.568,11.695v31.491h-8.101v-59.904h7.758v10.998c1.89-3.221,4.49-5.859,7.875-7.859
		c4.184-2.472,9.167-3.709,14.947-3.709c4.868,0,9.144,0.935,12.837,2.796c3.688,1.864,6.578,4.699,8.672,8.5
		c2.088,3.804,3.139,8.597,3.139,14.378V393.169z M595.62,338.284l-3.538,6.506c-2.662-1.826-5.515-3.14-8.557-3.938
		c-3.043-0.8-6.084-1.197-9.128-1.197c-5.401,0-9.375,0.932-11.922,2.794c-2.552,1.867-3.824,4.243-3.824,7.135
		c0,2.28,0.702,4.069,2.112,5.361c1.405,1.294,3.27,2.301,5.589,3.024c2.319,0.722,4.868,1.312,7.646,1.767
		c2.775,0.457,5.55,1.012,8.328,1.653c2.776,0.647,5.323,1.526,7.646,2.626c2.319,1.104,4.181,2.665,5.591,4.678
		c1.405,2.016,2.111,4.662,2.111,7.93c0,3.502-0.971,6.523-2.91,9.072c-1.941,2.55-4.756,4.525-8.445,5.933
		c-3.688,1.408-8.157,2.111-13.403,2.111c-4.947,0-9.626-0.703-14.035-2.111c-4.414-1.407-7.874-3.174-10.385-5.307l3.649-6.388
		c2.437,1.825,5.554,3.404,9.359,4.734c3.802,1.333,7.794,1.996,11.978,1.996c5.706,0,9.814-0.893,12.325-2.679
		c2.508-1.788,3.765-4.167,3.765-7.134c0-2.204-0.706-3.935-2.111-5.192c-1.407-1.253-3.25-2.204-5.533-2.852
		c-2.28-0.646-4.831-1.196-7.646-1.655c-2.813-0.455-5.61-0.987-8.385-1.597c-2.778-0.607-5.306-1.501-7.587-2.681
		c-2.284-1.179-4.128-2.795-5.534-4.85c-1.407-2.053-2.11-4.793-2.11-8.214c0-3.271,0.914-6.201,2.737-8.787
		c1.824-2.584,4.508-4.621,8.046-6.104c3.534-1.482,7.851-2.226,12.948-2.226c3.881,0,7.759,0.515,11.641,1.542
		C589.917,335.263,593.111,336.614,595.62,338.284z"/>
</g>
<g>
	<path fill="#A8933B" d="M172.501,459.922c-0.352,0-0.493,0.14-0.633,0.563l-3.797,10.052c-0.703,1.759-1.055,3.445-1.055,4.289
		c0,1.266,0.633,2.178,2.813,2.178h1.055c0.844,0,1.055,0.142,1.055,0.563c0,0.562-0.421,0.702-1.195,0.702
		c-2.251,0-5.273-0.21-7.452-0.21c-0.773,0-4.64,0.21-8.296,0.21c-0.914,0-1.335-0.141-1.335-0.702c0-0.422,0.281-0.563,0.843-0.563
		c0.633,0,1.617-0.069,2.18-0.14c3.234-0.422,4.569-2.812,5.975-6.327l17.645-44.147c0.843-2.039,1.266-2.811,1.969-2.811
		c0.632,0,1.055,0.632,1.758,2.247c1.687,3.867,12.935,32.55,17.433,43.235c2.671,6.327,4.709,7.311,6.187,7.662
		c1.055,0.211,2.109,0.28,2.952,0.28c0.563,0,0.914,0.071,0.914,0.563c0,0.562-0.632,0.702-3.233,0.702
		c-2.532,0-7.663,0-13.287-0.141c-1.267-0.069-2.11-0.069-2.11-0.562c0-0.422,0.282-0.563,0.984-0.633
		c0.492-0.141,0.984-0.773,0.632-1.617l-5.624-14.903c-0.141-0.352-0.352-0.491-0.703-0.491H172.501z M186.841,456.406
		c0.352,0,0.422-0.211,0.352-0.421l-6.327-17.365c-0.071-0.28-0.141-0.632-0.352-0.632c-0.21,0-0.352,0.352-0.421,0.632
		l-6.468,17.293c-0.07,0.282,0,0.493,0.282,0.493H186.841z"/>
	<path fill="#A8933B" d="M250.881,477.425c-2.813,1.055-7.311,1.828-11.037,1.828c-20.598,0-28.612-15.254-28.612-27.908
		c0-11.459,8.225-27.206,28.824-27.206c16.8,0,28.47,10.194,28.47,26.645c0,12.371-7.804,20.176-12.232,23.128l14.129,7.24
		c14.833,7.593,24.183,8.365,28.963,8.365c3.656,0,8.858-0.562,13.708-2.459c0.422-0.142,0.774-0.353,1.056-0.353
		c0.351,0,0.632,0.281,0.632,0.633c0,0.422-0.352,0.633-0.844,0.843c-4.218,2.039-12.162,5.271-22.285,5.271
		c-10.614,0-18.138-2.741-29.736-9.558L250.881,477.425z M258.683,452.681c0-17.012-10.544-25.166-20.245-25.166
		c-9.21,0-17.436,5.904-17.436,22.214c0,16.729,10.124,26.01,21.442,26.01C248.068,475.738,258.683,473.277,258.683,452.681z"/>
	<path fill="#A8933B" d="M281.244,445.511c0-10.686,0-12.654-0.141-14.904c-0.14-2.39-0.704-3.515-3.022-4.007
		c-0.563-0.141-1.757-0.211-2.742-0.211c-0.772,0-1.195-0.141-1.195-0.633c0-0.491,0.492-0.633,1.546-0.633
		c3.726,0,8.155,0.211,10.264,0.211c1.688,0,6.116-0.211,8.646-0.211c1.054,0,1.546,0.142,1.546,0.633
		c0,0.492-0.421,0.633-1.124,0.633c-0.773,0-1.195,0.07-2.039,0.211c-1.898,0.352-2.461,1.546-2.601,4.007
		c-0.141,2.25-0.141,4.219-0.141,14.904v9.841c0,10.193,2.039,14.482,5.483,17.295c3.165,2.601,6.398,2.881,8.788,2.881
		c3.093,0,6.889-0.984,9.701-3.795c3.866-3.868,4.078-10.193,4.078-17.436v-8.786c0-10.686,0-12.654-0.141-14.904
		c-0.141-2.39-0.703-3.515-3.022-4.007c-0.563-0.141-1.757-0.211-2.531-0.211c-0.773,0-1.195-0.141-1.195-0.633
		c0-0.491,0.493-0.633,1.476-0.633c3.585,0,8.014,0.211,8.084,0.211c0.845,0,5.273-0.211,8.015-0.211
		c0.984,0,1.476,0.142,1.476,0.633c0,0.492-0.422,0.633-1.266,0.633c-0.773,0-1.195,0.07-2.038,0.211
		c-1.898,0.352-2.46,1.546-2.602,4.007c-0.14,2.25-0.14,4.219-0.14,14.904v7.521c0,7.804-0.774,16.098-6.678,21.16
		c-4.992,4.287-10.054,5.061-14.623,5.061c-3.725,0-10.474-0.211-15.605-4.85c-3.585-3.234-6.257-8.437-6.257-18.631V445.511z"/>
	<path fill="#A8933B" d="M346.057,459.922c-0.351,0-0.492,0.14-0.633,0.563l-3.796,10.052c-0.703,1.759-1.054,3.445-1.054,4.289
		c0,1.266,0.632,2.178,2.812,2.178h1.054c0.843,0,1.055,0.142,1.055,0.563c0,0.562-0.422,0.702-1.196,0.702
		c-2.249,0-5.272-0.21-7.452-0.21c-0.774,0-4.639,0.21-8.294,0.21c-0.915,0-1.335-0.141-1.335-0.702
		c0-0.422,0.282-0.563,0.843-0.563c0.633,0,1.616-0.069,2.179-0.14c3.233-0.422,4.569-2.812,5.974-6.327l17.646-44.147
		c0.844-2.039,1.266-2.811,1.968-2.811c0.633,0,1.054,0.632,1.757,2.247c1.688,3.867,12.935,32.55,17.434,43.235
		c2.673,6.327,4.71,7.311,6.187,7.662c1.054,0.211,2.108,0.28,2.952,0.28c0.563,0,0.914,0.071,0.914,0.563
		c0,0.562-0.633,0.702-3.233,0.702c-2.53,0-7.663,0-13.287-0.141c-1.265-0.069-2.108-0.069-2.108-0.562
		c0-0.422,0.28-0.563,0.985-0.633c0.491-0.141,0.982-0.773,0.632-1.617l-5.626-14.903c-0.14-0.352-0.35-0.491-0.701-0.491H346.057z
		 M360.397,456.406c0.351,0,0.421-0.211,0.351-0.421l-6.326-17.365c-0.07-0.28-0.141-0.632-0.352-0.632s-0.352,0.352-0.422,0.632
		l-6.467,17.293c-0.071,0.282,0,0.493,0.28,0.493H360.397z"/>
	<path fill="#A8933B" d="M392.451,445.511c0-10.686,0-12.654-0.142-14.904c-0.141-2.39-0.702-3.515-3.021-4.007
		c-0.563-0.141-1.759-0.211-2.741-0.211c-0.774,0-1.195-0.141-1.195-0.633c0-0.491,0.491-0.633,1.545-0.633
		c3.726,0,8.156,0.211,9.633,0.211c2.389,0,7.731-0.211,9.91-0.211c4.43,0,9.14,0.422,12.937,3.022
		c1.968,1.336,4.78,4.923,4.78,9.632c0,5.201-2.179,9.983-9.28,15.747c6.257,7.873,11.108,14.13,15.255,18.488
		c3.938,4.078,6.82,4.569,7.874,4.78c0.773,0.141,1.405,0.21,1.968,0.21s0.843,0.211,0.843,0.563c0,0.562-0.491,0.702-1.334,0.702
		h-6.678c-3.938,0-5.696-0.35-7.523-1.335c-3.022-1.617-5.694-4.921-9.631-10.334c-2.813-3.866-6.045-8.646-6.959-9.7
		c-0.352-0.422-0.772-0.493-1.267-0.493l-6.116-0.141c-0.351,0-0.562,0.141-0.562,0.563v0.985c0,6.536,0,12.09,0.353,15.042
		c0.209,2.039,0.632,3.586,2.741,3.867c1.054,0.141,2.6,0.28,3.445,0.28c0.562,0,0.843,0.211,0.843,0.563
		c0,0.492-0.491,0.702-1.406,0.702c-4.078,0-9.28-0.21-10.334-0.21c-1.335,0-5.766,0.21-8.576,0.21c-0.915,0-1.406-0.21-1.406-0.702
		c0-0.353,0.281-0.563,1.124-0.563c1.054,0,1.898-0.14,2.53-0.28c1.406-0.281,1.759-1.828,2.039-3.867
		c0.353-2.952,0.353-8.506,0.353-14.972V445.511z M400.746,451.063c0,0.773,0.142,1.054,0.633,1.265
		c1.476,0.493,3.584,0.704,5.343,0.704c2.812,0,3.726-0.282,4.991-1.195c2.108-1.548,4.147-4.78,4.147-10.545
		c0-9.982-6.608-12.864-10.756-12.864c-1.757,0-3.022,0.069-3.726,0.28c-0.491,0.142-0.633,0.422-0.633,0.984V451.063z"/>
	<path fill="#A8933B" d="M445.521,445.511c0-10.686,0-12.654-0.142-14.904c-0.141-2.39-0.843-3.585-2.39-3.937
		c-0.772-0.211-1.687-0.281-2.531-0.281c-0.702,0-1.124-0.141-1.124-0.702c0-0.422,0.562-0.563,1.687-0.563
		c2.672,0,7.1,0.211,9.139,0.211c1.757,0,5.905-0.211,8.577-0.211c0.913,0,1.476,0.142,1.476,0.563c0,0.562-0.421,0.702-1.125,0.702
		c-0.703,0-1.265,0.07-2.108,0.211c-1.897,0.352-2.461,1.546-2.601,4.007c-0.141,2.25-0.141,4.219-0.141,14.904v12.373
		c0,6.818,0,12.372,0.28,15.394c0.211,1.899,0.705,3.164,2.813,3.445c0.984,0.141,2.53,0.28,3.584,0.28
		c0.774,0,1.126,0.211,1.126,0.563c0,0.492-0.563,0.702-1.335,0.702c-4.641,0-9.069-0.21-10.967-0.21
		c-1.618,0-6.046,0.21-8.857,0.21c-0.915,0-1.408-0.21-1.408-0.702c0-0.353,0.283-0.563,1.126-0.563c1.055,0,1.898-0.14,2.531-0.28
		c1.406-0.281,1.828-1.476,2.039-3.515c0.352-2.952,0.352-8.506,0.352-15.324V445.511z"/>
	<path fill="#A8933B" d="M474.27,445.511c0-10.686,0-12.654-0.14-14.904c-0.142-2.39-0.702-3.515-3.022-4.007
		c-0.563-0.141-1.759-0.211-2.742-0.211c-0.774,0-1.196-0.141-1.196-0.633c0-0.491,0.494-0.633,1.548-0.633
		c3.727,0,8.154,0.211,10.263,0.211c1.688,0,6.117-0.211,8.647-0.211c1.055,0,1.547,0.142,1.547,0.633
		c0,0.492-0.423,0.633-1.125,0.633c-0.774,0-1.196,0.07-2.039,0.211c-1.897,0.352-2.46,1.546-2.6,4.007
		c-0.142,2.25-0.142,4.219-0.142,14.904v9.841c0,10.193,2.039,14.482,5.482,17.295c3.165,2.601,6.397,2.881,8.788,2.881
		c3.094,0,6.89-0.984,9.7-3.795c3.868-3.868,4.078-10.193,4.078-17.436v-8.786c0-10.686,0-12.654-0.141-14.904
		c-0.14-2.39-0.703-3.515-3.022-4.007c-0.563-0.141-1.759-0.211-2.531-0.211c-0.773,0-1.194-0.141-1.194-0.633
		c0-0.491,0.491-0.633,1.476-0.633c3.586,0,8.015,0.211,8.084,0.211c0.844,0,5.271-0.211,8.016-0.211
		c0.983,0,1.476,0.142,1.476,0.633c0,0.492-0.422,0.633-1.265,0.633c-0.774,0-1.196,0.07-2.041,0.211
		c-1.897,0.352-2.459,1.546-2.601,4.007c-0.141,2.25-0.141,4.219-0.141,14.904v7.521c0,7.804-0.772,16.098-6.677,21.16
		c-4.993,4.287-10.054,5.061-14.623,5.061c-3.726,0-10.475-0.211-15.605-4.85c-3.586-3.234-6.258-8.437-6.258-18.631V445.511z"/>
	<path fill="#A8933B" d="M538.661,425.405c0.211-1.195,0.633-1.827,1.195-1.827s0.985,0.351,1.898,2.178l19.189,39.648l19.122-40.14
		c0.563-1.126,0.914-1.687,1.547-1.687s1.055,0.702,1.266,2.178l6.397,43.443c0.632,4.431,1.336,6.47,3.444,7.103
		c2.039,0.632,3.444,0.701,4.358,0.701c0.633,0,1.125,0.071,1.125,0.493c0,0.563-0.845,0.772-1.828,0.772
		c-1.758,0-11.458-0.21-14.271-0.422c-1.617-0.139-2.039-0.351-2.039-0.772c0-0.352,0.282-0.563,0.773-0.772
		c0.423-0.142,0.634-1.055,0.352-3.024l-4.217-30.931h-0.28l-15.328,31.916c-1.616,3.304-1.967,3.937-2.6,3.937
		s-1.337-1.406-2.461-3.516c-1.687-3.233-7.241-13.988-8.084-15.958c-0.633-1.476-4.85-10.334-7.311-15.605h-0.283l-3.655,27.979
		c-0.14,1.265-0.21,2.178-0.21,3.304c0,1.335,0.914,1.968,2.109,2.249c1.265,0.281,2.25,0.351,2.952,0.351
		c0.563,0,1.054,0.142,1.054,0.493c0,0.632-0.632,0.772-1.687,0.772c-2.952,0-6.116-0.21-7.381-0.21c-1.336,0-4.71,0.21-6.96,0.21
		c-0.702,0-1.265-0.141-1.265-0.772c0-0.352,0.422-0.493,1.125-0.493c0.562,0,1.053,0,2.108-0.21
		c1.968-0.422,2.53-3.163,2.881-5.554L538.661,425.405z"/>
</g>
</svg>
