<?xml version="1.0" encoding="utf-8"?>
<!-- Generator: Adobe Illustrator 14.0.0, SVG Export Plug-In . SVG Version: 6.00 Build 43363)  -->
<!DOCTYPE svg PUBLIC "-//W3C//DTD SVG 1.1//EN" "http://www.w3.org/Graphics/SVG/1.1/DTD/svg11.dtd">
<svg version="1.1" id="Layer_1" xmlns="http://www.w3.org/2000/svg" xmlns:xlink="http://www.w3.org/1999/xlink" x="0px" y="0px"
	 width="720px" height="720px" viewBox="0 0 720 720" enable-background="new 0 0 720 720" xml:space="preserve">
<path fill="#4178AA" d="M492.955,302.973c-1.636-9.127-3.602-18.046-5.853-26.802c0.232,8.021-0.341,15.267-1.941,21.105
	c-5.763,21.177-41.734,44.181-49.915,49.181c-6.703,44.284-49.491,88.245-63.325,101.589c-7.704,9.718-31.028,33.729-33.524,39.146
	c0,0-53.117-6.214-66.521,2.403c-13.396,8.602-32.528,27.757-8.614,44.976c10.684,7.699,10.462,13.488,16.27,14.349
	c-54.862,42.077-56.454,83.269-56.454,83.269s26.792-12.439,41.152-14.356c14.345-1.916,39.236-35.405,45.932-56.461
	c2.098-6.604,10.011-14.438,8.549-16.897c38.078-17.551,81.594-34.404,115.869-70.203C477.638,429.3,504.45,367.091,492.955,302.973
	z"/>
<path fill="#A8933B" d="M317.272,286.955c0,0-19.597,32.648-14.935,49.43c4.666,16.785,27.981,16.785,27.981,16.785
	s3.722,19.582,13.051,21.463c9.324,1.856,8.399-16.805,8.399-16.805S331.238,298.152,317.272,286.955z"/>
<g>
	<polygon fill="#A8933B" points="379.308,245.117 379.319,245.061 379.369,245.081 383.123,225.301 360.796,217.867 
		359.538,241.359 	"/>
	<polygon fill="#A8933B" points="379.356,245.117 379.369,245.097 379.319,245.061 379.319,245.117 	"/>
	<path fill="#A8933B" d="M461.465,210.594c-14.554-26.481-34.107-51.106-60.397-74.148C346.524,88.6,302.506,80.762,294.849,98.553
		c-5.796,13.486-9.919,26.103-5.374,45.141c-1.772,4.486-1.664,10.177,0.836,15.7c1.511,3.368,3.762,6.185,6.378,8.257
		c-0.165,13.349,0.8,63.796,23.05,100.855c25.827,43.082,63.157,90.924,64.119,114.864c0.57,14.516,3.512,26.123,5.728,33.084
		c16.461-19.332,34.869-46.18,38.318-72.821l0.245-1.851l1.615-0.951c0.418-0.264,42.443-25.164,48.009-45.558
		C482.875,276.525,476.817,240.42,461.465,210.594z M311.203,158.859c-0.273,1.247-1.021,3.475-3.063,4.393
		c-0.583,0.241-1.209,0.389-1.869,0.389c-3.34,0-7.026-3.04-8.991-7.386c-2.416-5.374-1.52-11.222,1.953-12.777
		c0.563-0.266,1.189-0.402,1.849-0.402c3.329,0,7.03,3.05,8.995,7.409C311.335,153.27,311.754,156.321,311.203,158.859z
		 M409.355,230.875l-3.091-1.017l-1.263,23.771l-3.234-1.067l-1.259,23.628l-22.455-7.491l-0.189,3.408l-22.586-7.532l-0.173,3.254
		l-25.675-8.549l22.797,4.314v-0.042l-0.028-0.014l0.028,0.014l3.758-19.771l-22.314-7.455l22.792,4.325l4.333-22.785l22.793,4.329
		l4.337-22.815l-1.283,23.516l19.799,3.74l0.013-0.04v0.048l0.032,0.008l4.336-22.809L409.355,230.875z"/>
	<polygon fill="#A8933B" points="382.238,249.359 379.151,248.32 378.069,268.255 397.615,271.961 401.329,252.408 382.414,246.105 
			"/>
	<polygon fill="#A8933B" points="359.501,241.787 359.345,244.884 356.39,243.913 355.302,264.132 374.979,267.878 375.024,267.693 
		374.827,267.628 375.024,267.666 378.717,248.195 	"/>
	<polygon fill="#A8933B" points="386.475,226.432 383.509,225.433 382.436,245.658 401.907,249.37 401.949,249.142 401.944,249.359 
		402.112,249.406 405.854,229.723 386.64,223.307 	"/>
</g>
</svg>
